# xmcd CD database file
#
# Track frame offsets:
#	150
#	21852
#	40879
#	57530
#	74595
#	91109
#	109559
#	124042
#	140644
#	156229
#
# Disc length: 2288 seconds
#
# Revision: 0
# Processed by: cddbd v1.5.1PL0 Copyright (c) Steve Scherf et al.
# Submitted via: CDex 1.51
#
DISCID=8a08ee0a
DTITLE=NO blues - Farewell Shalabiye
DYEAR=2005
DGENRE=Oriental
TTITLE0=the clock
TTITLE1=columbus stockade
TTITLE2=farewell shalabiye [ instrumental ]
TTITLE3=nobody's fault but mine
TTITLE4=longa sakeez
TTITLE5=the regular
TTITLE6=memphis
TTITLE7=dancing without sound
TTITLE8=wayfaring stranger
TTITLE9=farewell shalabiye [ single version ]
EXTD=YEAR: 2005
EXTT0=
EXTT1=
EXTT2=
EXTT3=
EXTT4=
EXTT5=
EXTT6=
EXTT7=
EXTT8=
EXTT9=
PLAYORDER=
